<svg xmlns="http://www.w3.org/2000/svg" xmlns:xlink="http://www.w3.org/1999/xlink" fill="currentColor" version="1.1" width="14" height="14" viewBox="0 0 14 14"><g><g><path d="M14,0L0,0L0,11L14,11L14,0ZM1.2,9.8L1.2,1.2L12.8,1.2L12.8,9.8L1.2,9.8Z" fill-rule="evenodd" fill="currentColor" fill-opacity="0.699999988079071"/></g><g><path d="M1.399997,14.000002618530273L2,13.999999618530273L12.0003,13.999999618530273L12.6003,14.000002618530273L12.6003,12.799996618530274L12.0003,12.799999618530274L2,12.799999618530274L1.399997,12.799996618530274L1.399997,14.000002618530273Z" fill-rule="evenodd" fill="currentColor" fill-opacity="0.699999988079071"/></g><g><g><path d="M6.874260047683716,5.124258325637817Q6.958660047683716,5.039867325637817,7.004330047683716,4.9296043256378175Q7.0500000476837155,4.819341325637818,7.0500000476837155,4.699994325637817Q7.0500000476837155,4.640899525637817,7.038470047683716,4.582940325637817Q7.026940047683716,4.524980325637817,7.004330047683716,4.470384325637817Q6.981710047683716,4.415787325637817,6.948880047683716,4.366652325637817Q6.916050047683716,4.3175163256378175,6.874260047683716,4.275730325637817Q6.832480047683716,4.233944325637817,6.783340047683716,4.201112325637817Q6.734210047683716,4.1682813256378175,6.679610047683716,4.1456663256378175Q6.625010047683716,4.1230523256378175,6.567050047683716,4.111523325637817Q6.509090047683715,4.099994325637818,6.450000047683716,4.099994325637818Q6.330650047683716,4.099994325637818,6.220390047683716,4.1456663256378175Q6.110130047683716,4.191339325637817,6.0257400476837155,4.275730325637817L6.025580047683716,4.275885325637818L3.0258910476837158,7.275574325637818L3.025736047683716,7.275734325637817Q2.9413450476837157,7.360124325637818,2.895672047683716,7.470384325637817Q2.8500000476837157,7.5806443256378175,2.8500000476837157,7.699994325637817Q2.8500000476837157,7.759084325637817,2.8615290476837156,7.817044325637817Q2.873058047683716,7.875004325637818,2.895672047683716,7.9296043256378175Q2.918287047683716,7.984204325637817,2.9511180476837158,8.033334325637817Q2.9839500476837157,8.082474325637818,3.025736047683716,8.124254325637818Q3.067522047683716,8.166044325637817,3.116658047683716,8.198874325637817Q3.165793047683716,8.231704325637818,3.2203900476837157,8.254324325637818Q3.274986047683716,8.276934325637818,3.332946047683716,8.288464325637818Q3.390905247683716,8.299994325637817,3.450000047683716,8.299994325637817Q3.5693470476837157,8.299994325637817,3.679610047683716,8.254324325637818Q3.7898730476837157,8.208654325637816,3.874264047683716,8.124254325637818L3.8744190476837157,8.124104325637818L6.8741100476837165,5.124413325637818L6.874260047683716,5.124258325637817L6.874260047683716,5.124258325637817Z" fill-rule="evenodd" fill="currentColor" fill-opacity="0.699999988079071"/></g><g><path d="M11.374260047683716,3.624264047683716Q11.458660047683715,3.5398730476837157,11.504330047683716,3.429610047683716Q11.550000047683715,3.3193470476837157,11.550000047683715,3.200000047683716Q11.550000047683715,3.140905247683716,11.538470047683717,3.082946047683716Q11.526940047683716,3.024986047683716,11.504330047683716,2.9703900476837157Q11.481710047683716,2.915793047683716,11.448880047683716,2.866658047683716Q11.416050047683715,2.817522047683716,11.374260047683716,2.775736047683716Q11.332480047683717,2.7339500476837157,11.283340047683716,2.7011180476837158Q11.234210047683716,2.668287047683716,11.179610047683717,2.645672047683716Q11.125010047683716,2.623058047683716,11.067050047683715,2.6115290476837156Q11.009090047683715,2.6000000476837157,10.950000047683716,2.6000000476837157Q10.830650047683715,2.6000000476837157,10.720390047683715,2.645672047683716Q10.610130047683716,2.6913450476837157,10.525740047683716,2.775736047683716L10.525490047683716,2.775981047683716L8.025981047683716,5.275490047683716L8.025736047683715,5.2757400476837155Q7.941345047683716,5.360130047683716,7.895672047683716,5.470390047683716Q7.850000047683716,5.580650047683716,7.850000047683716,5.700000047683716Q7.850000047683716,5.759090047683715,7.861529047683716,5.817050047683716Q7.873058047683716,5.875010047683716,7.895672047683716,5.929610047683716Q7.918287047683716,5.984210047683716,7.951118047683716,6.033340047683716Q7.983950047683716,6.082480047683716,8.025736047683715,6.124260047683716Q8.067522047683715,6.166050047683716,8.116658047683716,6.198880047683716Q8.165793047683715,6.231710047683716,8.220390047683717,6.254330047683716Q8.274986047683715,6.276940047683716,8.332946047683716,6.288470047683716Q8.390905247683715,6.3000000476837155,8.450000047683716,6.3000000476837155Q8.569347047683715,6.3000000476837155,8.679610047683715,6.254330047683716Q8.789873047683717,6.208660047683716,8.874264047683717,6.124260047683716L8.874419047683716,6.1241100476837165L11.374110047683716,3.6244190476837157L11.374260047683716,3.624264047683716L11.374260047683716,3.624264047683716Z" fill-rule="evenodd" fill="currentColor" fill-opacity="0.699999988079071"/></g><g><path d="M6.718454047683716,4.1634013256378175L8.718330047683716,5.163338325637818Q8.793080047683716,5.200712325637817,8.854770047683715,5.257089325637818Q8.916450047683716,5.313466325637817,8.960390047683717,5.384555325637818Q9.004330047683716,5.455645325637818,9.027160047683715,5.536034325637817Q9.050000047683715,5.6164243256378175,9.050000047683715,5.699994325637817Q9.050000047683715,5.759084325637818,9.038470047683717,5.817044325637817Q9.026940047683716,5.875004325637818,9.004330047683716,5.9296043256378175Q8.981710047683716,5.984204325637817,8.948880047683716,6.033334325637817Q8.916050047683715,6.0824743256378175,8.874260047683716,6.124254325637818Q8.832480047683717,6.1660443256378175,8.783340047683716,6.198874325637817Q8.734210047683716,6.231704325637818,8.679610047683717,6.254324325637818Q8.625010047683716,6.276934325637818,8.567050047683715,6.288464325637817Q8.509090047683715,6.299994325637817,8.450000047683716,6.299994325637817Q8.308360047683715,6.299994325637817,8.181670047683715,6.236654325637817L6.181798047683716,5.236713325637817L6.1816720476837155,5.236650325637817Q6.106924047683716,5.1992773256378175,6.045235047683716,5.142899325637817Q5.983545047683716,5.086522325637818,5.939609047683716,5.015433325637817Q5.895674047683716,4.944343325637817,5.872837047683716,4.863954325637818Q5.850000047683716,4.7835647256378175,5.850000047683716,4.699994325637817Q5.850000047683716,4.640899525637817,5.861529047683716,4.582940325637817Q5.873058047683716,4.524980325637817,5.895672047683716,4.470384325637817Q5.918287047683716,4.415787325637817,5.951118047683716,4.366652325637817Q5.983950047683716,4.3175163256378175,6.025736047683716,4.275730325637817Q6.067522047683716,4.233944325637817,6.116658047683716,4.201112325637817Q6.1657930476837155,4.1682813256378175,6.220390047683716,4.1456663256378175Q6.274986047683716,4.1230523256378175,6.332946047683715,4.111523325637817Q6.390905247683715,4.099994325637818,6.450000047683716,4.099994325637818Q6.591641047683716,4.099994325637818,6.718328047683716,4.163338325637818L6.718454047683716,4.1634013256378175Z" fill-rule="evenodd" fill="currentColor" fill-opacity="0.699999988079071"/></g></g></g></svg>